<svg width="99" height="96" viewBox="0 0 99 96" fill="none" xmlns="http://www.w3.org/2000/svg">
<path d="M49.5 48C42.6938 48 36.8672 45.65 32.0203 40.95C27.1734 36.25 24.75 30.6 24.75 24C24.75 17.4 27.1734 11.75 32.0203 7.05C36.8672 2.35 42.6938 0 49.5 0C56.3063 0 62.1328 2.35 66.9797 7.05C71.8266 11.75 74.25 17.4 74.25 24C74.25 30.6 71.8266 36.25 66.9797 40.95C62.1328 45.65 56.3063 48 49.5 48ZM86.625 96H12.375C8.97188 96 6.05962 94.826 3.63825 92.478C1.21275 90.126 0 87.3 0 84V79.2C0 75.8 0.903376 72.674 2.71013 69.822C4.51275 66.974 6.90938 64.8 9.9 63.3C16.2938 60.2 22.7906 57.874 29.3906 56.322C35.9906 54.774 42.6938 54 49.5 54C56.3063 54 63.0094 54.774 69.6094 56.322C76.2094 57.874 82.7062 60.2 89.1 63.3C92.0906 64.8 94.4873 66.974 96.2899 69.822C98.0966 72.674 99 75.8 99 79.2V84C99 87.3 97.7893 90.126 95.3679 92.478C92.9424 94.826 90.0281 96 86.625 96ZM12.375 84H86.625V79.2C86.625 78.1 86.3424 77.1 85.7773 76.2C85.2081 75.3 84.4594 74.6 83.5312 74.1C77.9625 71.4 72.3422 69.374 66.6703 68.022C60.9984 66.674 55.275 66 49.5 66C43.725 66 38.0016 66.674 32.3297 68.022C26.6578 69.374 21.0375 71.4 15.4688 74.1C14.5406 74.6 13.794 75.3 13.2289 76.2C12.6596 77.1 12.375 78.1 12.375 79.2V84ZM49.5 36C52.9031 36 55.8174 34.824 58.2429 32.472C60.6643 30.124 61.875 27.3 61.875 24C61.875 20.7 60.6643 17.876 58.2429 15.528C55.8174 13.176 52.9031 12 49.5 12C46.0969 12 43.1846 13.176 40.7633 15.528C38.3378 17.876 37.125 20.7 37.125 24C37.125 27.3 38.3378 30.124 40.7633 32.472C43.1846 34.824 46.0969 36 49.5 36Z" fill="white" fill-opacity="0.5"/>
</svg>
