<svg width="31" height="18" viewBox="0 0 31 18" fill="none" xmlns="http://www.w3.org/2000/svg">
<path d="M28.1818 0H2.81818C1.26818 0 0 1.35 0 3V15C0 16.65 1.26818 18 2.81818 18H28.1818C29.7318 18 31 16.65 31 15V3C31 1.35 29.7318 0 28.1818 0ZM12.6818 10.5H9.86364V13.5C9.86364 14.325 9.22955 15 8.45455 15C7.67955 15 7.04545 14.325 7.04545 13.5V10.5H4.22727C3.45227 10.5 2.81818 9.825 2.81818 9C2.81818 8.175 3.45227 7.5 4.22727 7.5H7.04545V4.5C7.04545 3.675 7.67955 3 8.45455 3C9.22955 3 9.86364 3.675 9.86364 4.5V7.5H12.6818C13.4568 7.5 14.0909 8.175 14.0909 9C14.0909 9.825 13.4568 10.5 12.6818 10.5ZM20.4318 13.5C19.2623 13.5 18.3182 12.495 18.3182 11.25C18.3182 10.005 19.2623 9 20.4318 9C21.6014 9 22.5455 10.005 22.5455 11.25C22.5455 12.495 21.6014 13.5 20.4318 13.5ZM26.0682 9C24.8986 9 23.9545 7.995 23.9545 6.75C23.9545 5.505 24.8986 4.5 26.0682 4.5C27.2377 4.5 28.1818 5.505 28.1818 6.75C28.1818 7.995 27.2377 9 26.0682 9Z" fill="white"/>
</svg>
