<svg width="38" height="38" viewBox="0 0 38 38" fill="none" xmlns="http://www.w3.org/2000/svg">
<g clip-path="url(#clip0_48_847)">
<path d="M31.6667 30.0833H30.0833V7.91667C30.0833 7.04583 29.3708 6.33333 28.5 6.33333H22.1667C22.1667 5.4625 21.4542 4.75 20.5833 4.75H9.5C8.62917 4.75 7.91667 5.4625 7.91667 6.33333V30.0833H6.33333C5.4625 30.0833 4.75 30.7958 4.75 31.6667C4.75 32.5375 5.4625 33.25 6.33333 33.25H20.5833C21.4542 33.25 22.1667 32.5375 22.1667 31.6667V9.5H26.9167V31.6667C26.9167 32.5375 27.6292 33.25 28.5 33.25H31.6667C32.5375 33.25 33.25 32.5375 33.25 31.6667C33.25 30.7958 32.5375 30.0833 31.6667 30.0833ZM17.4167 20.5833C16.5458 20.5833 15.8333 19.8708 15.8333 19C15.8333 18.1292 16.5458 17.4167 17.4167 17.4167C18.2875 17.4167 19 18.1292 19 19C19 19.8708 18.2875 20.5833 17.4167 20.5833Z" fill="white"/>
</g>
<defs>
<clipPath id="clip0_48_847">
<rect width="38" height="38" fill="white"/>
</clipPath>
</defs>
</svg>
