<svg width="38" height="38" viewBox="0 0 38 38" fill="none" xmlns="http://www.w3.org/2000/svg">
<g clip-path="url(#clip0_48_833)">
<path fill-rule="evenodd" clip-rule="evenodd" d="M26.3942 20.7892C28.5633 22.2617 30.0833 24.2567 30.0833 26.9167V31.6667H34.8333C35.7042 31.6667 36.4167 30.9542 36.4167 30.0834V26.9167C36.4167 23.465 30.7642 21.4225 26.3942 20.7892Z" fill="white"/>
<path d="M14.2501 19C17.7479 19 20.5834 16.1645 20.5834 12.6667C20.5834 9.16887 17.7479 6.33334 14.2501 6.33334C10.7523 6.33334 7.91675 9.16887 7.91675 12.6667C7.91675 16.1645 10.7523 19 14.2501 19Z" fill="white"/>
<path fill-rule="evenodd" clip-rule="evenodd" d="M23.75 19C27.2492 19 30.0833 16.1658 30.0833 12.6667C30.0833 9.16751 27.2492 6.33334 23.75 6.33334C23.0058 6.33334 22.3092 6.49168 21.6442 6.71334C22.9583 8.34418 23.75 10.4183 23.75 12.6667C23.75 14.915 22.9583 16.9892 21.6442 18.62C22.3092 18.8417 23.0058 19 23.75 19Z" fill="white"/>
<path fill-rule="evenodd" clip-rule="evenodd" d="M14.25 20.5833C10.0225 20.5833 1.58337 22.705 1.58337 26.9167V30.0833C1.58337 30.9542 2.29587 31.6667 3.16671 31.6667H25.3334C26.2042 31.6667 26.9167 30.9542 26.9167 30.0833V26.9167C26.9167 22.705 18.4775 20.5833 14.25 20.5833Z" fill="white"/>
</g>
<defs>
<clipPath id="clip0_48_833">
<rect width="38" height="38" fill="white"/>
</clipPath>
</defs>
</svg>
