<svg width="34" height="34" viewBox="0 0 34 34" fill="none" xmlns="http://www.w3.org/2000/svg">
<path d="M24.9307 21.9263H23.3551L22.7967 21.3881C25.1899 18.5977 26.4264 14.7907 25.7484 10.7445C24.811 5.20346 20.1841 0.778589 14.5999 0.100906C6.1638 -0.93555 -0.936099 6.16019 0.100965 14.5914C0.779046 20.1723 5.20651 24.7965 10.7508 25.7333C14.7994 26.4109 18.6086 25.1752 21.4007 22.7834L21.9391 23.3414V24.9161L30.4151 33.3871C31.2328 34.2043 32.569 34.2043 33.3867 33.3871C34.2044 32.5699 34.2044 31.2345 33.3867 30.4172L24.9307 21.9263ZM12.9645 21.9263C7.99861 21.9263 3.98996 17.92 3.98996 12.9569C3.98996 7.99392 7.99861 3.98762 12.9645 3.98762C17.9305 3.98762 21.9391 7.99392 21.9391 12.9569C21.9391 17.92 17.9305 21.9263 12.9645 21.9263Z" fill="white"/>
</svg>
