<svg width="38" height="38" viewBox="0 0 38 38" fill="none" xmlns="http://www.w3.org/2000/svg">
<g clip-path="url(#clip0_48_830)">
<path d="M30.875 19C30.875 18.6358 30.8591 18.2875 30.8275 17.9233L33.7725 15.6908C34.4058 15.2158 34.58 14.3292 34.1841 13.6325L31.2233 8.51832C30.8275 7.82166 29.9725 7.53666 29.2441 7.85332L25.84 9.29416C25.2541 8.88249 24.6366 8.51832 23.9875 8.21749L23.5283 4.55999C23.4333 3.76832 22.7525 3.16666 21.9608 3.16666H16.055C15.2475 3.16666 14.5666 3.76832 14.4716 4.55999L14.0125 8.21749C13.3633 8.51832 12.7458 8.88249 12.16 9.29416L8.75579 7.85332C8.02746 7.53666 7.17246 7.82166 6.77662 8.51832L3.81579 13.6483C3.41996 14.345 3.59412 15.2158 4.22746 15.7067L7.17246 17.9392C7.14079 18.2875 7.12496 18.6358 7.12496 19C7.12496 19.3642 7.14079 19.7125 7.17246 20.0767L4.22746 22.3092C3.59412 22.7842 3.41996 23.6708 3.81579 24.3675L6.77662 29.4817C7.17246 30.1783 8.02746 30.4633 8.75579 30.1467L12.16 28.7058C12.7458 29.1175 13.3633 29.4817 14.0125 29.7825L14.4716 33.44C14.5666 34.2317 15.2475 34.8333 16.0391 34.8333H21.945C22.7366 34.8333 23.4175 34.2317 23.5125 33.44L23.9716 29.7825C24.6208 29.4817 25.2383 29.1175 25.8241 28.7058L29.2283 30.1467C29.9566 30.4633 30.8116 30.1783 31.2075 29.4817L34.1683 24.3675C34.5641 23.6708 34.39 22.8 33.7566 22.3092L30.8116 20.0767C30.8591 19.7125 30.875 19.3642 30.875 19ZM19.0633 24.5417C16.0075 24.5417 13.5216 22.0558 13.5216 19C13.5216 15.9442 16.0075 13.4583 19.0633 13.4583C22.1191 13.4583 24.605 15.9442 24.605 19C24.605 22.0558 22.1191 24.5417 19.0633 24.5417Z" fill="white"/>
</g>
<defs>
<clipPath id="clip0_48_830">
<rect width="38" height="38" fill="white"/>
</clipPath>
</defs>
</svg>
