<svg width="23" height="23" viewBox="0 0 23 23" fill="none" xmlns="http://www.w3.org/2000/svg">
<g clip-path="url(#clip0_48_861)">
<path d="M10.7237 1.30333L4.01542 4.28374C3.32542 4.59041 2.875 5.28041 2.875 6.03749V10.5417C2.875 15.8604 6.555 20.8342 11.5 22.0417C16.445 20.8342 20.125 15.8604 20.125 10.5417V6.03749C20.125 5.28041 19.6746 4.59041 18.9846 4.28374L12.2762 1.30333C11.7875 1.08291 11.2125 1.08291 10.7237 1.30333ZM8.90292 15.6112L6.42083 13.1292C6.04708 12.7554 6.04708 12.1517 6.42083 11.7779C6.79458 11.4042 7.39833 11.4042 7.77208 11.7779L9.58333 13.5796L15.2183 7.94458C15.5921 7.57083 16.1958 7.57083 16.5696 7.94458C16.9433 8.31833 16.9433 8.92208 16.5696 9.29583L10.2542 15.6112C9.89 15.985 9.27667 15.985 8.90292 15.6112Z" fill="white"/>
</g>
<defs>
<clipPath id="clip0_48_861">
<rect width="23" height="23" fill="white"/>
</clipPath>
</defs>
</svg>
